<svg width="24" height="26" viewBox="0 0 24 26" fill="none" xmlns="http://www.w3.org/2000/svg">
<path d="M12.2929 7.26599C11.9024 6.84292 11.9024 6.15699 12.2929 5.73393C12.6834 5.31086 13.3166 5.31086 13.7071 5.73393L19.7071 12.2339C20.0857 12.6441 20.0989 13.3044 19.7372 13.732L14.2372 20.232C13.864 20.673 13.2314 20.7028 12.8243 20.2985C12.4172 19.8943 12.3897 19.209 12.7628 18.7679L17.6159 13.0325L12.2929 7.26599Z" fill="white"/>
<path opacity="0.3" d="M5.29289 7.26599C4.90237 6.84292 4.90237 6.15699 5.29289 5.73393C5.68342 5.31086 6.31658 5.31086 6.70711 5.73393L12.7071 12.2339C13.0857 12.6441 13.0989 13.3044 12.7372 13.732L7.23715 20.232C6.86396 20.673 6.23139 20.7028 5.82427 20.2985C5.41716 19.8943 5.38965 19.209 5.76285 18.7679L10.6159 13.0325L5.29289 7.26599Z" fill="white"/>
</svg>
