<svg width="133" height="32" viewBox="0 0 133 32" fill="none" xmlns="http://www.w3.org/2000/svg">
<rect x="1.92383" y="1" width="32.9766" height="30" rx="5" fill="#8C8A97" stroke="#7A7786" stroke-width="2"/>
<path fill-rule="evenodd" clip-rule="evenodd" d="M16.21 14.2078C17.0272 14.2078 17.6897 13.6017 17.6897 12.854C17.6897 12.1064 17.0272 11.5002 16.21 11.5002C15.3927 11.5002 14.7303 12.1064 14.7303 12.854C14.7303 13.6017 15.3927 14.2078 16.21 14.2078ZM8.36292 19.2601L13.2513 14.7878L15.8144 17.1327L20.7027 12.6604L27.9164 19.2601H8.36292Z" fill="#5F5C6B"/>
<rect x="49.0164" width="34.9766" height="32" rx="6" fill="#7A7786"/>
<path fill-rule="evenodd" clip-rule="evenodd" d="M64.5144 14.2078C65.3316 14.2078 65.9941 13.6017 65.9941 12.854C65.9941 12.1064 65.3316 11.5002 64.5144 11.5002C63.6972 11.5002 63.0347 12.1064 63.0347 12.854C63.0347 13.6017 63.6972 14.2078 64.5144 14.2078ZM56.6674 19.2601L61.5557 14.7878L64.1188 17.1327L69.0072 12.6604L76.2208 19.2601H56.6674Z" fill="#5F5C6B"/>
<rect x="97.1084" width="34.9766" height="32" rx="6" fill="#7A7786"/>
<path fill-rule="evenodd" clip-rule="evenodd" d="M112.822 14.2078C113.639 14.2078 114.302 13.6017 114.302 12.854C114.302 12.1064 113.639 11.5002 112.822 11.5002C112.005 11.5002 111.343 12.1064 111.343 12.854C111.343 13.6017 112.005 14.2078 112.822 14.2078ZM104.974 19.2601L109.863 14.7878L112.426 17.1327L117.314 12.6604L124.528 19.2601H104.974Z" fill="#5F5C6B"/>
</svg>
