<svg width="44" height="36" viewBox="0 0 44 36" fill="none" xmlns="http://www.w3.org/2000/svg">
<path d="M43.294 7.019C42.326 9.058 38.069 18.897 37.494 19.807C37.4292 19.9112 37.3669 20.0169 37.307 20.124C36.74 21.092 36.142 21.837 34.081 21.837H14.4C14.81 23.091 15.672 24.637 17.456 24.637H34.486C34.7273 24.637 34.9588 24.7329 35.1295 24.9035C35.3001 25.0742 35.396 25.3057 35.396 25.547C35.396 25.7883 35.3001 26.0198 35.1295 26.1905C34.9588 26.3611 34.7273 26.457 34.486 26.457H17.459C14.934 26.457 13.086 24.48 12.399 21.446C12.02 19.773 7.411 4.353 7.08 3.146C6.90326 2.76469 6.62508 2.43931 6.27588 2.20545C5.92667 1.97159 5.51988 1.83824 5.1 1.82H0.91C0.668653 1.82 0.437191 1.72413 0.266533 1.55347C0.0958747 1.38281 0 1.15135 0 0.91C0 0.668653 0.0958747 0.437191 0.266533 0.266533C0.437191 0.0958747 0.668653 3.59635e-09 0.91 0L5.1 0C6.662 0 8.139 0.085 8.777 1.566C8.79429 1.60457 8.80769 1.64477 8.817 1.686C9 2.346 12.817 15.897 13.908 20.011H34.071C35.253 20.011 35.371 19.806 35.722 19.203C35.793 19.083 35.865 18.958 35.95 18.828C36.49 17.98 40.72 8.2 41.621 6.299C41.996 5.317 41.929 4.782 41.826 4.63C41.759 4.53 41.54 4.474 41.242 4.474C39.27 4.505 9.855 4.474 8.985 4.474C8.74822 4.46616 8.52376 4.36659 8.35903 4.19632C8.1943 4.02605 8.10221 3.79841 8.10221 3.5615C8.10221 3.32459 8.1943 3.09695 8.35903 2.92668C8.52376 2.75641 8.74822 2.65684 8.985 2.649C9.199 2.649 39.252 2.68 41.224 2.649C41.6256 2.61503 42.0292 2.68407 42.3967 2.84961C42.7642 3.01515 43.0833 3.2717 43.324 3.595C43.869 4.391 43.86 5.542 43.294 7.019ZM16.973 27.356C17.8155 27.3556 18.6392 27.6051 19.3399 28.0729C20.0406 28.5408 20.5868 29.2059 20.9094 29.9842C21.232 30.7625 21.3165 31.619 21.1523 32.4454C20.988 33.2718 20.5823 34.0308 19.9866 34.6266C19.3908 35.2223 18.6318 35.628 17.8054 35.7923C16.979 35.9565 16.1225 35.872 15.3442 35.5494C14.5659 35.2268 13.9008 34.6806 13.4329 33.9799C12.9651 33.2792 12.7156 32.4555 12.716 31.613C12.7184 30.4847 13.1676 29.4033 13.9655 28.6055C14.7633 27.8076 15.8447 27.3584 16.973 27.356ZM16.973 34.125C17.469 34.125 17.9539 33.9779 18.3664 33.7023C18.7788 33.4267 19.1003 33.035 19.2901 32.5768C19.4799 32.1185 19.5296 31.6142 19.4328 31.1277C19.336 30.6412 19.0972 30.1943 18.7464 29.8436C18.3957 29.4928 17.9488 29.254 17.4623 29.1572C16.9758 29.0604 16.4715 29.1101 16.0132 29.2999C15.555 29.4897 15.1633 29.8112 14.8877 30.2236C14.6121 30.6361 14.465 31.121 14.465 31.617C14.4658 32.2818 14.7303 32.9192 15.2005 33.3892C15.6707 33.8592 16.3082 34.1245 16.973 34.125ZM32.549 27.356C33.3915 27.3556 34.2152 27.6051 34.9159 28.0729C35.6166 28.5408 36.1628 29.2059 36.4854 29.9842C36.808 30.7625 36.8925 31.619 36.7283 32.4454C36.564 33.2718 36.1583 34.0308 35.5626 34.6266C34.9668 35.2223 34.2077 35.628 33.3814 35.7923C32.555 35.9565 31.6985 35.872 30.9202 35.5494C30.1419 35.2268 29.4768 34.6806 29.0089 33.9799C28.5411 33.2792 28.2916 32.4555 28.292 31.613C28.2944 30.4847 28.7436 29.4033 29.5415 28.6055C30.3393 27.8076 31.4207 27.3584 32.549 27.356ZM32.549 34.125C33.045 34.125 33.5299 33.9779 33.9424 33.7023C34.3548 33.4267 34.6763 33.035 34.8661 32.5768C35.0559 32.1185 35.1056 31.6142 35.0088 31.1277C34.912 30.6412 34.6732 30.1943 34.3224 29.8436C33.9717 29.4928 33.5248 29.254 33.0383 29.1572C32.5518 29.0604 32.0475 29.1101 31.5892 29.2999C31.131 29.4897 30.7393 29.8112 30.4637 30.2236C30.1881 30.6361 30.041 31.121 30.041 31.617C30.0415 32.282 30.3059 32.9196 30.7762 33.3898C31.2464 33.8601 31.884 34.1245 32.549 34.125Z" fill="white"/>
</svg>
