<svg width="31" height="30" viewBox="0 0 31 30" fill="none" xmlns="http://www.w3.org/2000/svg">
<path d="M24.2031 5.625H5.45312C3.89982 5.625 2.64062 6.8842 2.64062 8.4375V19.6875C2.64062 21.2408 3.89982 22.5 5.45312 22.5H24.2031C25.7564 22.5 27.0156 21.2408 27.0156 19.6875V8.4375C27.0156 6.8842 25.7564 5.625 24.2031 5.625Z" fill="#C6C5CE"/>
<path d="M27.0156 9.375H2.64062V12.1875H27.0156V9.375Z" fill="#4E4B59"/>
<path d="M10.1406 18.75H7.32812C7.07948 18.75 6.84103 18.6512 6.66521 18.4754C6.4894 18.2996 6.39062 18.0611 6.39062 17.8125C6.39062 17.5639 6.4894 17.3254 6.66521 17.1496C6.84103 16.9738 7.07948 16.875 7.32812 16.875H10.1406C10.3893 16.875 10.6277 16.9738 10.8035 17.1496C10.9794 17.3254 11.0781 17.5639 11.0781 17.8125C11.0781 18.0611 10.9794 18.2996 10.8035 18.4754C10.6277 18.6512 10.3893 18.75 10.1406 18.75Z" fill="#4E4B59"/>
<path d="M24.2031 24.3751C24.0797 24.3758 23.9574 24.3521 23.8431 24.3055C23.7289 24.2588 23.625 24.1901 23.5374 24.1032L21.6624 22.2282C21.4859 22.0516 21.3867 21.8122 21.3867 21.5626C21.3867 21.3129 21.4859 21.0735 21.6624 20.8969C21.839 20.7204 22.0784 20.6212 22.3281 20.6212C22.5777 20.6212 22.8171 20.7204 22.9937 20.8969L24.2031 22.1157L27.2874 19.0219C27.464 18.8454 27.7034 18.7462 27.9531 18.7462C28.2027 18.7462 28.4421 18.8454 28.6187 19.0219C28.7952 19.1985 28.8944 19.4379 28.8944 19.6876C28.8944 19.9372 28.7952 20.1766 28.6187 20.3532L24.8687 24.1032C24.7811 24.1901 24.6772 24.2588 24.563 24.3055C24.4487 24.3521 24.3264 24.3758 24.2031 24.3751Z" fill="#4E4B59"/>
</svg>
