<svg width="267" height="46" viewBox="0 0 267 46" fill="none" xmlns="http://www.w3.org/2000/svg">
<path d="M67.6133 -5.80379e-07L81.0094 23L54.2171 23L67.6133 -5.80379e-07Z" fill="#8C8A97"/>
<path d="M67.6133 46L81.0094 23L54.2171 23L67.6133 46Z" fill="#ACABB7"/>
<path d="M40.8209 46L67.6132 46L54.217 23" fill="#4E4B59"/>
<path d="M40.821 -5.7524e-07L27.4187 23L54.2172 23L40.821 -5.7524e-07Z" fill="#8C8A97"/>
<path d="M54.2172 23L27.4187 23L40.821 46L54.2172 23Z" fill="#ACABB7"/>
<path d="M40.821 0L14.0226 -1.15075e-06L27.4187 23L40.821 0Z" fill="#4E4B59"/>
<path d="M14.0226 -5.70147e-07L0.626431 23L27.4187 23L14.0226 -5.70147e-07Z" fill="#ACABB7"/>
<path d="M27.4187 23L0.626432 23L14.0226 46L27.4187 23Z" fill="#8C8A97"/>
<path d="M118.995 23.7887C118.922 24.6145 118.727 25.3825 118.408 26.0924C118.104 26.7879 117.676 27.3964 117.126 27.918C116.59 28.4251 115.923 28.8236 115.126 29.1133C114.344 29.4031 113.431 29.548 112.388 29.548C111.214 29.548 110.178 29.3524 109.28 28.9612C108.396 28.57 107.65 28.0194 107.041 27.3095C106.447 26.5995 105.998 25.7447 105.694 24.7449C105.39 23.7307 105.238 22.6151 105.238 21.398C105.238 20.1375 105.404 19.0074 105.737 18.0076C106.071 17.0079 106.549 16.1531 107.172 15.4431C107.795 14.7332 108.548 14.1898 109.432 13.8131C110.316 13.4364 111.316 13.248 112.431 13.248C113.417 13.248 114.271 13.3712 114.996 13.6175C115.735 13.8638 116.35 14.2188 116.843 14.6824C117.35 15.1461 117.756 15.7039 118.06 16.3559C118.364 17.0079 118.589 17.7396 118.734 18.551L115.517 18.9639C115.358 18.0511 115.046 17.3339 114.583 16.8123C114.134 16.2907 113.417 16.0299 112.431 16.0299C111.185 16.0299 110.236 16.5008 109.584 17.4426C108.947 18.3699 108.628 19.6883 108.628 21.398C108.628 23.1222 108.968 24.4479 109.649 25.3752C110.345 26.3025 111.272 26.7661 112.431 26.7661C113.431 26.7661 114.163 26.5126 114.626 26.0055C115.104 25.4839 115.401 24.7449 115.517 23.7887H118.995Z" fill="white"/>
<path d="M126.338 29.5045C124.513 29.5045 123.1 28.9829 122.1 27.9397C121.1 26.8965 120.601 25.4042 120.601 23.4627C120.601 22.5354 120.731 21.7023 120.992 20.9634C121.267 20.2099 121.651 19.5797 122.144 19.0726C122.651 18.551 123.259 18.1525 123.969 17.8772C124.679 17.6019 125.469 17.4643 126.338 17.4643C127.222 17.4643 128.019 17.6019 128.729 17.8772C129.439 18.1525 130.04 18.551 130.533 19.0726C131.04 19.5797 131.424 20.2099 131.685 20.9634C131.945 21.7023 132.076 22.5354 132.076 23.4627C132.076 24.4045 131.938 25.2521 131.663 26.0055C131.402 26.7444 131.018 27.3747 130.511 27.8963C130.018 28.4179 129.417 28.8163 128.707 29.0916C127.997 29.3669 127.207 29.5045 126.338 29.5045ZM126.338 27.0704C127.207 27.0704 127.852 26.7589 128.272 26.1359C128.707 25.5129 128.924 24.6218 128.924 23.4627C128.924 22.3036 128.707 21.4198 128.272 20.8112C127.852 20.2027 127.207 19.8984 126.338 19.8984C125.469 19.8984 124.817 20.2027 124.382 20.8112C123.962 21.4198 123.752 22.3036 123.752 23.4627C123.752 24.6363 123.962 25.5346 124.382 26.1576C124.802 26.7661 125.454 27.0704 126.338 27.0704Z" fill="white"/>
<path d="M134.384 17.812H137.34V19.3334C137.76 18.6959 138.253 18.225 138.818 17.9207C139.383 17.6164 139.977 17.4643 140.6 17.4643C141.426 17.4643 142.099 17.6309 142.621 17.9642C143.143 18.2974 143.512 18.7828 143.729 19.4203C144.251 18.7248 144.802 18.225 145.381 17.9207C145.961 17.6164 146.598 17.4643 147.294 17.4643C148.467 17.4643 149.344 17.7903 149.923 18.4423C150.517 19.0798 150.814 20.123 150.814 21.5719V29.1568H147.772V21.9848C147.772 21.5791 147.736 21.2531 147.663 21.0068C147.591 20.746 147.489 20.5432 147.359 20.3983C147.243 20.2534 147.098 20.152 146.924 20.094C146.75 20.0361 146.569 20.0071 146.381 20.0071C146.077 20.0071 145.794 20.0578 145.533 20.1592C145.287 20.2606 145.041 20.4345 144.794 20.6808C144.591 20.8837 144.425 21.1155 144.294 21.3763C144.179 21.6371 144.121 21.9124 144.121 22.2022V29.1568H141.078V21.9848C141.078 21.5791 141.042 21.2531 140.969 21.0068C140.897 20.746 140.795 20.5432 140.665 20.3983C140.549 20.2534 140.404 20.152 140.23 20.094C140.056 20.0361 139.875 20.0071 139.687 20.0071C139.383 20.0071 139.1 20.0578 138.839 20.1592C138.593 20.2606 138.347 20.4345 138.1 20.6808C137.898 20.8837 137.731 21.13 137.601 21.4198C137.485 21.695 137.427 21.9993 137.427 22.3326V29.1568H134.384V17.812Z" fill="white"/>
<path d="M153.401 17.812H156.356V19.3116C157.226 18.0801 158.414 17.4643 159.921 17.4643C161.5 17.4643 162.681 18.0004 163.463 19.0726C164.246 20.1447 164.637 21.6154 164.637 23.4844C164.637 24.3827 164.521 25.2013 164.289 25.9403C164.072 26.6792 163.746 27.3167 163.311 27.8528C162.891 28.3744 162.376 28.7801 161.768 29.0699C161.159 29.3596 160.471 29.5045 159.703 29.5045C159.138 29.5045 158.573 29.4031 158.008 29.2003C157.458 28.9974 156.936 28.5917 156.443 27.9832V33.373H153.401V17.812ZM156.422 23.5713C156.422 24.3103 156.48 24.9043 156.595 25.3535C156.726 25.7881 156.929 26.1431 157.204 26.4184C157.494 26.6792 157.784 26.8531 158.073 26.94C158.378 27.0124 158.682 27.0487 158.986 27.0487C159.319 27.0487 159.638 26.9835 159.942 26.8531C160.247 26.7227 160.507 26.5198 160.725 26.2445C160.957 25.9548 161.138 25.5853 161.268 25.1361C161.399 24.687 161.464 24.1437 161.464 23.5061C161.464 22.8397 161.399 22.2818 161.268 21.8327C161.152 21.3835 160.986 21.0213 160.768 20.746C160.551 20.4562 160.29 20.2534 159.986 20.1375C159.696 20.0071 159.385 19.9419 159.051 19.9419C158.675 19.9419 158.349 19.9926 158.073 20.094C157.798 20.1954 157.53 20.3548 157.269 20.5722C156.979 20.8474 156.762 21.1952 156.617 21.6154C156.487 22.0355 156.422 22.5716 156.422 23.2236V23.5713Z" fill="white"/>
<path d="M173.679 27.7224C173.23 28.2295 172.723 28.6424 172.157 28.9612C171.607 29.2799 170.89 29.4393 170.006 29.4393C169.499 29.4393 169.013 29.3741 168.55 29.2437C168.101 29.1133 167.702 28.9105 167.354 28.6352C167.021 28.3599 166.753 28.0122 166.55 27.592C166.347 27.1573 166.246 26.643 166.246 26.0489C166.246 25.2665 166.42 24.629 166.768 24.1364C167.115 23.6438 167.572 23.2598 168.137 22.9845C168.702 22.7093 169.332 22.5137 170.028 22.3977C170.738 22.2818 171.455 22.2094 172.179 22.1804L173.635 22.1152V21.5502C173.635 20.8547 173.44 20.3766 173.049 20.1158C172.672 19.855 172.223 19.7246 171.701 19.7246C170.499 19.7246 169.81 20.181 169.636 21.0938L166.855 20.833C167.057 19.6449 167.579 18.79 168.419 18.2684C169.26 17.7323 170.39 17.4643 171.81 17.4643C172.679 17.4643 173.418 17.573 174.027 17.7903C174.635 17.9931 175.12 18.2902 175.483 18.6814C175.859 19.0726 176.127 19.5507 176.287 20.1158C176.461 20.6663 176.548 21.2894 176.548 21.9848V29.1568H173.679V27.7224ZM173.614 24.0929L172.266 24.1581C171.629 24.1871 171.114 24.2523 170.723 24.3537C170.332 24.4552 170.028 24.5856 169.81 24.7449C169.607 24.8898 169.47 25.0637 169.397 25.2665C169.325 25.4694 169.289 25.694 169.289 25.9403C169.289 26.317 169.419 26.614 169.68 26.8313C169.941 27.0487 170.303 27.1573 170.767 27.1573C171.549 27.1573 172.186 26.9762 172.679 26.614C172.954 26.4112 173.179 26.1576 173.353 25.8533C173.527 25.5346 173.614 25.1434 173.614 24.6797V24.0929Z" fill="white"/>
<path d="M179.124 17.812H182.08V19.3768C182.529 18.7103 183.058 18.225 183.666 17.9207C184.289 17.6164 184.934 17.4643 185.601 17.4643C186.89 17.4643 187.846 17.8048 188.469 18.4858C189.092 19.1523 189.404 20.2099 189.404 21.6588V29.1568H186.361V22.0718C186.361 21.2749 186.209 20.7315 185.905 20.4418C185.601 20.152 185.195 20.0071 184.688 20.0071C184.297 20.0071 183.956 20.065 183.666 20.181C183.391 20.2969 183.13 20.4635 182.884 20.6808C182.681 20.8837 182.507 21.13 182.362 21.4198C182.232 21.695 182.167 21.9993 182.167 22.3326V29.1568H179.124V17.812Z" fill="white"/>
<path d="M192.078 30.7651C192.498 30.881 192.925 30.9389 193.36 30.9389C193.766 30.9389 194.092 30.8375 194.338 30.6347C194.584 30.4463 194.794 30.1058 194.968 29.6132L195.316 28.6569L190.6 17.812H194.121L196.772 25.2665L199.25 17.812H202.575L197.989 29.4828C197.728 30.1348 197.482 30.6999 197.25 31.178C197.018 31.6706 196.75 32.0763 196.446 32.3951C196.156 32.7283 195.801 32.9746 195.381 33.134C194.975 33.2934 194.468 33.373 193.86 33.373C193.483 33.373 193.106 33.3441 192.73 33.2861C192.368 33.2426 191.984 33.1557 191.578 33.0253L192.078 30.7651Z" fill="white"/>
<path d="M209.183 13.6392H212.095L218.484 23.8104V13.6392H221.636V29.1568H218.745L212.334 19.0726V29.1568H209.183V13.6392Z" fill="white"/>
<path d="M231.302 27.7224C230.853 28.2295 230.345 28.6424 229.78 28.9612C229.23 29.2799 228.513 29.4393 227.629 29.4393C227.122 29.4393 226.636 29.3741 226.173 29.2437C225.723 29.1133 225.325 28.9105 224.977 28.6352C224.644 28.3599 224.376 28.0122 224.173 27.592C223.97 27.1573 223.869 26.643 223.869 26.0489C223.869 25.2665 224.043 24.629 224.391 24.1364C224.738 23.6438 225.195 23.2598 225.76 22.9845C226.325 22.7093 226.955 22.5137 227.65 22.3977C228.36 22.2818 229.078 22.2094 229.802 22.1804L231.258 22.1152V21.5502C231.258 20.8547 231.063 20.3766 230.671 20.1158C230.295 19.855 229.846 19.7246 229.324 19.7246C228.121 19.7246 227.433 20.181 227.259 21.0938L224.477 20.833C224.68 19.6449 225.202 18.79 226.042 18.2684C226.883 17.7323 228.013 17.4643 229.433 17.4643C230.302 17.4643 231.041 17.573 231.649 17.7903C232.258 17.9931 232.743 18.2902 233.106 18.6814C233.482 19.0726 233.75 19.5507 233.91 20.1158C234.084 20.6663 234.17 21.2894 234.17 21.9848V29.1568H231.302V27.7224ZM231.236 24.0929L229.889 24.1581C229.252 24.1871 228.737 24.2523 228.346 24.3537C227.955 24.4552 227.65 24.5856 227.433 24.7449C227.23 24.8898 227.093 25.0637 227.02 25.2665C226.948 25.4694 226.912 25.694 226.912 25.9403C226.912 26.317 227.042 26.614 227.303 26.8313C227.564 27.0487 227.926 27.1573 228.389 27.1573C229.172 27.1573 229.809 26.9762 230.302 26.614C230.577 26.4112 230.802 26.1576 230.976 25.8533C231.15 25.5346 231.236 25.1434 231.236 24.6797V24.0929Z" fill="white"/>
<path d="M236.747 17.812H239.703V19.3334C240.123 18.6959 240.615 18.225 241.18 17.9207C241.746 17.6164 242.34 17.4643 242.963 17.4643C243.788 17.4643 244.462 17.6309 244.984 17.9642C245.505 18.2974 245.875 18.7828 246.092 19.4203C246.614 18.7248 247.164 18.225 247.744 17.9207C248.323 17.6164 248.961 17.4643 249.656 17.4643C250.83 17.4643 251.707 17.7903 252.286 18.4423C252.88 19.0798 253.177 20.123 253.177 21.5719V29.1568H250.135V21.9848C250.135 21.5791 250.098 21.2531 250.026 21.0068C249.953 20.746 249.852 20.5432 249.722 20.3983C249.606 20.2534 249.461 20.152 249.287 20.094C249.113 20.0361 248.932 20.0071 248.744 20.0071C248.439 20.0071 248.157 20.0578 247.896 20.1592C247.65 20.2606 247.403 20.4345 247.157 20.6808C246.954 20.8837 246.788 21.1155 246.657 21.3763C246.541 21.6371 246.483 21.9124 246.483 22.2022V29.1568H243.441V21.9848C243.441 21.5791 243.404 21.2531 243.332 21.0068C243.26 20.746 243.158 20.5432 243.028 20.3983C242.912 20.2534 242.767 20.152 242.593 20.094C242.419 20.0361 242.238 20.0071 242.05 20.0071C241.746 20.0071 241.463 20.0578 241.202 20.1592C240.956 20.2606 240.71 20.4345 240.463 20.6808C240.26 20.8837 240.094 21.13 239.963 21.4198C239.847 21.695 239.79 21.9993 239.79 22.3326V29.1568H236.747V17.812Z" fill="white"/>
<path d="M266.152 25.6143C265.949 26.8893 265.435 27.86 264.609 28.5265C263.798 29.1785 262.609 29.5045 261.045 29.5045C259.161 29.5045 257.741 28.9829 256.785 27.9397C255.843 26.8965 255.372 25.4187 255.372 23.5061C255.372 22.5499 255.51 21.7023 255.785 20.9634C256.061 20.2099 256.444 19.5724 256.937 19.0508C257.444 18.5292 258.045 18.138 258.741 17.8772C259.436 17.6019 260.204 17.4643 261.045 17.4643C262.783 17.4643 264.087 17.9642 264.957 18.9639C265.84 19.9636 266.282 21.3111 266.282 23.0063V24.2233H258.415C258.444 25.1361 258.676 25.8533 259.11 26.3749C259.545 26.882 260.197 27.1356 261.066 27.1356C262.269 27.1356 262.979 26.6285 263.196 25.6143H266.152ZM263.348 22.2239C263.348 21.4415 263.153 20.833 262.762 20.3983C262.385 19.9636 261.791 19.7463 260.979 19.7463C260.574 19.7463 260.219 19.8115 259.915 19.9419C259.61 20.0723 259.349 20.2534 259.132 20.4852C258.929 20.7026 258.77 20.9634 258.654 21.2676C258.538 21.5574 258.473 21.8762 258.458 22.2239H263.348Z" fill="white"/>
</svg>
