<svg width="35" height="28" viewBox="0 0 35 28" fill="none" xmlns="http://www.w3.org/2000/svg">
<path d="M17.3819 28.0001C17.0788 28.0016 16.7836 27.9032 16.5419 27.7201L16.4569 27.6501L16.1239 27.3701L7.84095 20.3701L4.01095 17.1891C3.91368 17.1005 3.81187 17.0171 3.70595 16.9391C2.57606 16.0683 1.66009 14.9509 1.02795 13.6721C0.400941 12.403 0.0660825 11.0096 0.0479457 9.5941C0.0273074 8.27864 0.305279 6.97562 0.860946 5.7831C1.38824 4.60948 2.15061 3.55645 3.10095 2.6891C4.92428 0.931164 7.36844 -0.0349993 9.90095 0.0011024C11.3137 -0.00246953 12.7112 0.293646 14.001 0.869901C15.2909 1.44616 16.4439 2.28945 17.3839 3.3441C18.3237 2.2897 19.4764 1.44656 20.7659 0.870312C22.0555 0.294066 23.4525 -0.00218652 24.8649 0.0011024C27.3937 -0.037081 29.8366 0.917957 31.6689 2.6611C32.6192 3.5281 33.3816 4.58079 33.9089 5.7541C34.4469 6.9531 34.7239 8.2531 34.7209 9.5671C34.7262 11.0004 34.3903 12.4143 33.7409 13.6921C33.0843 14.9801 32.1424 16.1012 30.9869 16.9701L18.2299 27.7201C17.9864 27.9047 17.6875 28.0032 17.3819 28.0001ZM9.90095 2.4091C8.04802 2.38682 6.26055 3.09361 4.92395 4.3771C4.218 5.02535 3.65414 5.81293 3.26795 6.6901C2.84218 7.59842 2.63335 8.59325 2.65795 9.5961C2.65795 10.6531 2.90195 11.6961 3.36995 12.6441C3.8432 13.611 4.53888 14.452 5.39995 15.0981C5.47674 15.1862 5.56848 15.26 5.67095 15.3161C5.69692 15.3415 5.71915 15.3704 5.73695 15.4021C6.11695 15.7121 7.06895 16.5081 8.91795 18.0621L10.5429 19.4371L17.3829 25.1871L22.5959 20.8121C24.0984 19.526 25.6061 18.246 27.1189 16.9721L29.2669 15.1881L29.3339 15.1251C30.2005 14.4814 30.9031 13.6425 31.3849 12.6765C31.8667 11.7105 32.1141 10.6446 32.1069 9.5651C32.1099 8.56413 31.9024 7.57371 31.4979 6.6581C31.1119 5.78 30.548 4.99142 29.8419 4.3421C28.4968 3.07576 26.7122 2.38159 24.8649 2.4061C23.7953 2.40403 22.7378 2.63327 21.7649 3.0781C20.7986 3.51709 19.9472 4.17432 19.2779 4.9981L19.1159 5.1821C18.8697 5.41672 18.5783 5.59872 18.2594 5.71699C17.9405 5.83527 17.6008 5.88733 17.2612 5.87002C16.9215 5.85271 16.5889 5.76638 16.2837 5.6163C15.9785 5.46622 15.7071 5.25554 15.4859 4.9971L15.1869 4.6601C14.5625 4.0046 13.8194 3.47354 12.9969 3.0951C12.028 2.64131 10.9709 2.40707 9.90095 2.4091Z" fill="white"/>
</svg>
