<svg width="31" height="30" viewBox="0 0 31 30" fill="none" xmlns="http://www.w3.org/2000/svg">
<g clip-path="url(#clip0_80_91)">
<path d="M23.5038 22.3207C22.4183 22.3207 21.4008 21.9031 20.6322 21.1346L16.4925 16.9949C16.208 16.7104 15.6915 16.7104 15.4069 16.9949L11.2502 21.1516C10.4817 21.9202 9.46416 22.3377 8.37859 22.3377H7.56055L12.8198 27.597C14.4559 29.233 17.1265 29.233 18.7626 27.597L24.0374 22.3222L23.5038 22.3207Z" fill="#4E4B59"/>
<path d="M8.36142 7.66241C9.44699 7.66241 10.4645 8.07993 11.2331 8.84849L15.3898 13.0052C15.6898 13.3052 16.1738 13.3052 16.4753 13.0052L20.632 8.8655C21.4006 8.09694 22.4181 7.67942 23.5037 7.67942H24.0047L18.73 2.40467C17.0939 0.768592 14.4233 0.768592 12.7872 2.40467L7.52637 7.66241H8.36142Z" fill="#4E4B59"/>
<path d="M28.3611 12.0371L25.1725 8.84843C25.106 8.88245 25.0225 8.89792 24.939 8.89792H23.4869C22.7354 8.89792 22.0008 9.19792 21.4843 9.73297L17.3431 13.8727C16.9596 14.2562 16.4416 14.4572 15.9405 14.4572C15.4225 14.4572 14.9215 14.2562 14.5379 13.8727L10.3812 9.71596C9.84774 9.18245 9.1132 8.88091 8.37867 8.88091H6.59259C6.50908 8.88091 6.44259 8.8639 6.37609 8.83142L3.17042 12.0371C1.53434 13.6732 1.53434 16.3438 3.17042 17.9799L6.35908 21.1685C6.42558 21.1345 6.49207 21.1191 6.57558 21.1191H8.36166C9.1132 21.1191 9.84774 20.8191 10.3642 20.284L14.5209 16.1273C15.2725 15.3758 16.5916 15.3758 17.3416 16.1273L21.4812 20.267C22.0148 20.8005 22.7493 21.102 23.4838 21.102H24.9359C25.0194 21.102 25.0859 21.1191 25.1694 21.1515L28.358 17.9629C29.9972 16.3268 29.9972 13.6732 28.3611 12.0371Z" fill="#4E4B59"/>
</g>
<defs>
<clipPath id="clip0_80_91">
<rect width="30" height="30" fill="white" transform="translate(0.765625)"/>
</clipPath>
</defs>
</svg>
