<svg width="28" height="29" viewBox="0 0 28 29" fill="none" xmlns="http://www.w3.org/2000/svg">
<path opacity="0.8" d="M23.1924 5.30762C28.2692 10.3844 28.2692 18.6156 23.1924 23.6924C18.1156 28.7692 9.88441 28.7692 4.80762 23.6924C-0.269206 18.6156 -0.269206 10.3844 4.80762 5.30762C9.88444 0.230794 18.1156 0.230794 23.1924 5.30762" stroke="#5F5C6B" stroke-width="1.5" stroke-linecap="round" stroke-linejoin="round"/>
<path d="M16.8731 9.19009C18.4599 10.7769 18.4599 13.3496 16.8731 14.9364C15.2863 16.5231 12.7136 16.5231 11.1269 14.9364C9.54007 13.3496 9.54007 10.7769 11.1269 9.19009C12.7136 7.6033 15.2863 7.6033 16.8731 9.19009" stroke="#5F5C6B" stroke-width="1.5" stroke-linecap="round" stroke-linejoin="round"/>
<path d="M22.2435 24.5504C20.1707 22.3679 17.2472 21 14 21C10.7529 21 7.82937 22.3679 5.75659 24.5519" stroke="#5F5C6B" stroke-width="1.5" stroke-linecap="round" stroke-linejoin="round"/>
</svg>
