<svg width="18" height="18" viewBox="0 0 18 18" fill="none" xmlns="http://www.w3.org/2000/svg">
<path opacity="0.3" fill-rule="evenodd" clip-rule="evenodd" d="M3.64286 0.75H8.66498C9.01967 0.75 9.36288 0.875684 9.63368 1.10474L12.9687 3.92561C13.3057 4.21061 13.5 4.62954 13.5 5.07087V14.3125C13.5 15.6554 13.4847 15.75 12.1071 15.75H3.64286C2.26534 15.75 2.25 15.6554 2.25 14.3125V2.1875C2.25 0.844594 2.26534 0.75 3.64286 0.75ZM5.24998 9.74997C5.24998 9.33576 5.58576 8.99997 5.99998 8.99997H11.25C11.6642 8.99997 12 9.33576 12 9.74997C12 10.1642 11.6642 10.5 11.25 10.5H5.99998C5.58576 10.5 5.24998 10.1642 5.24998 9.74997ZM5.99998 12C5.58576 12 5.24998 12.3358 5.24998 12.75C5.24998 13.1642 5.58576 13.5 5.99998 13.5H8.24998C8.66419 13.5 8.99998 13.1642 8.99998 12.75C8.99998 12.3358 8.66419 12 8.24998 12H5.99998Z" fill="#4E4B59"/>
<path fill-rule="evenodd" clip-rule="evenodd" d="M5.14288 2.25H10.915C11.2697 2.25 11.6129 2.37568 11.8837 2.60474L15.2187 5.42561C15.5557 5.71061 15.75 6.12954 15.75 6.57087V15.8125C15.75 17.1554 15.7347 17.25 14.3572 17.25H5.14288C3.76536 17.25 3.75002 17.1554 3.75002 15.8125V3.6875C3.75002 2.34459 3.76536 2.25 5.14288 2.25ZM5.25 9.75C5.25 9.33579 5.58579 9 6 9H11.25C11.6642 9 12 9.33579 12 9.75C12 10.1642 11.6642 10.5 11.25 10.5H6C5.58579 10.5 5.25 10.1642 5.25 9.75ZM6 12C5.58579 12 5.25 12.3358 5.25 12.75C5.25 13.1642 5.58579 13.5 6 13.5H8.25C8.66421 13.5 9 13.1642 9 12.75C9 12.3358 8.66421 12 8.25 12H6Z" fill="#4E4B59"/>
</svg>
