<svg width="14" height="15" viewBox="0 0 14 15" fill="none" xmlns="http://www.w3.org/2000/svg">
<path opacity="0.3" fill-rule="evenodd" clip-rule="evenodd" d="M1.66667 0H11.6667L13.3333 2.91667H0L1.66667 0Z" fill="#4E4B59"/>
<path fill-rule="evenodd" clip-rule="evenodd" d="M2 1.66669C0.895431 1.66669 0 2.56212 0 3.66669V13C0 14.1046 0.895429 15 2 15H11.3333C12.4379 15 13.3333 14.1046 13.3333 13V3.66669C13.3333 2.56212 12.4379 1.66669 11.3333 1.66669H2ZM4.16665 5.00001C3.70642 5.00001 3.33332 5.37311 3.33332 5.83334C3.33332 6.29358 3.70642 6.66668 4.16665 6.66668H9.16665C9.62689 6.66668 9.99999 6.29358 9.99999 5.83334C9.99999 5.37311 9.62689 5.00001 9.16665 5.00001H4.16665Z" fill="#4E4B59"/>
</svg>
