<svg width="180" height="120" viewBox="0 0 180 120" fill="none" xmlns="http://www.w3.org/2000/svg">
<rect x="0.5" y="0.5" width="179" height="119" rx="3.5" fill="white"/>
<path d="M88.029 54.152H81.629V51.08H88.029V44.232H91.933V51.08H98.365V54.152H91.933V61H88.029V54.152Z" fill="#4E4B59"/>
<path d="M65.0149 70.8V82H62.7429V75.408L60.3909 82H58.7589L56.4069 75.408V82H54.1349V70.8H56.5509L59.5749 79.456L62.5989 70.8H65.0149ZM69.3254 82.16C68.8027 82.16 68.3334 82.0533 67.9174 81.84C67.5014 81.616 67.176 81.312 66.9414 80.928C66.7067 80.5333 66.5894 80.096 66.5894 79.616C66.5894 78.7947 66.9147 78.1653 67.5654 77.728C68.216 77.2907 69.144 77.072 70.3494 77.072H71.5974V76.736C71.5974 76.3093 71.4694 75.984 71.2134 75.76C70.968 75.5253 70.616 75.408 70.1574 75.408C69.6774 75.408 69.2187 75.4933 68.7814 75.664C68.344 75.8347 67.9867 76.0693 67.7094 76.368L66.8134 75.184C67.2507 74.768 67.768 74.4427 68.3654 74.208C68.9627 73.9627 69.5814 73.84 70.2214 73.84C71.288 73.84 72.1254 74.0907 72.7334 74.592C73.3414 75.0933 73.6454 75.7867 73.6454 76.672V80.32C73.6454 80.5653 73.6614 80.8533 73.6934 81.184C73.736 81.5147 73.784 81.7867 73.8374 82H72.0294C71.9654 81.8613 71.9174 81.728 71.8854 81.6C71.8534 81.4613 71.8267 81.2747 71.8054 81.04H71.7734C71.1654 81.7867 70.3494 82.16 69.3254 82.16ZM69.8214 80.624C70.3334 80.624 70.7547 80.496 71.0854 80.24C71.4267 79.9733 71.5974 79.6373 71.5974 79.232V78.432H70.2854C69.7414 78.432 69.32 78.5333 69.0214 78.736C68.7334 78.9387 68.5894 79.232 68.5894 79.616C68.5894 79.936 68.696 80.1867 68.9094 80.368C69.1334 80.5387 69.4374 80.624 69.8214 80.624ZM76.7541 73.072C76.3595 73.072 76.0448 72.9653 75.8101 72.752C75.5755 72.528 75.4581 72.2347 75.4581 71.872C75.4581 71.5093 75.5755 71.2213 75.8101 71.008C76.0448 70.784 76.3595 70.672 76.7541 70.672C77.1488 70.672 77.4635 70.784 77.6981 71.008C77.9435 71.2213 78.0661 71.5093 78.0661 71.872C78.0661 72.2347 77.9488 72.528 77.7141 72.752C77.4795 72.9653 77.1595 73.072 76.7541 73.072ZM75.7461 74H77.7781V82H75.7461V74ZM82.3291 82.16C81.6358 82.16 81.0225 82.0213 80.4891 81.744C79.9665 81.4667 79.5985 81.0987 79.3851 80.64L80.6491 79.76C80.8411 80.0267 81.0865 80.24 81.3851 80.4C81.6838 80.56 81.9878 80.64 82.2971 80.64C82.6598 80.64 82.9585 80.5493 83.1931 80.368C83.4278 80.176 83.5451 79.9413 83.5451 79.664C83.5451 79.44 83.4598 79.264 83.2891 79.136C83.1185 78.9973 82.7558 78.8213 82.2011 78.608C81.2305 78.2347 80.5478 77.856 80.1531 77.472C79.7585 77.088 79.5611 76.6133 79.5611 76.048C79.5611 75.3867 79.8278 74.8533 80.3611 74.448C80.9051 74.0427 81.6251 73.84 82.5211 73.84C83.1185 73.84 83.6571 73.9573 84.1371 74.192C84.6171 74.416 85.0065 74.7413 85.3051 75.168L84.1211 76.048C83.7478 75.5893 83.2411 75.36 82.6011 75.36C82.2811 75.36 82.0305 75.4187 81.8491 75.536C81.6785 75.6427 81.5931 75.8027 81.5931 76.016C81.5931 76.1653 81.6305 76.288 81.7051 76.384C81.7798 76.48 81.9238 76.5813 82.1371 76.688C82.3505 76.7947 82.6918 76.9387 83.1611 77.12C83.7905 77.3653 84.2758 77.6053 84.6171 77.84C84.9691 78.064 85.2145 78.3147 85.3531 78.592C85.5025 78.8587 85.5771 79.184 85.5771 79.568C85.5771 80.08 85.4385 80.5333 85.1611 80.928C84.8945 81.312 84.5158 81.616 84.0251 81.84C83.5345 82.0533 82.9691 82.16 82.3291 82.16ZM91.238 75.392H89.926V74H91.238V73.04C91.238 72.2613 91.4833 71.648 91.974 71.2C92.4647 70.752 93.1367 70.528 93.99 70.528C94.3847 70.528 94.7527 70.592 95.094 70.72C95.4353 70.8373 95.7127 71.0027 95.926 71.216L95.222 72.432C95.094 72.3147 94.9447 72.224 94.774 72.16C94.6033 72.096 94.4327 72.064 94.262 72.064C93.9527 72.064 93.7073 72.1653 93.526 72.368C93.3553 72.5707 93.27 72.848 93.27 73.2V74H95.526V75.392H93.27V82H91.238V75.392ZM99.7646 82.16C98.474 82.16 97.466 81.792 96.7406 81.056C96.0153 80.32 95.6526 79.3013 95.6526 78C95.6526 76.6987 96.0153 75.68 96.7406 74.944C97.466 74.208 98.474 73.84 99.7646 73.84C101.055 73.84 102.063 74.208 102.789 74.944C103.525 75.68 103.893 76.6987 103.893 78C103.893 79.3013 103.525 80.32 102.789 81.056C102.063 81.792 101.055 82.16 99.7646 82.16ZM99.7646 80.64C100.415 80.64 100.927 80.4053 101.301 79.936C101.674 79.4667 101.861 78.8213 101.861 78C101.861 77.1787 101.674 76.5333 101.301 76.064C100.927 75.5947 100.415 75.36 99.7646 75.36C99.114 75.36 98.602 75.5947 98.2286 76.064C97.866 76.5333 97.6846 77.1787 97.6846 78C97.6846 78.8213 97.866 79.4667 98.2286 79.936C98.602 80.4053 99.114 80.64 99.7646 80.64ZM108.662 82.16C107.841 82.16 107.201 81.936 106.742 81.488C106.284 81.04 106.054 80.4107 106.054 79.6V75.52H104.598V74H106.054V71.936L108.038 71.36H108.102V74H110.422V75.52H108.102V79.296C108.102 79.7547 108.209 80.0907 108.422 80.304C108.636 80.5173 108.961 80.624 109.398 80.624C109.814 80.624 110.204 80.56 110.566 80.432L110.662 81.824C110.182 82.048 109.516 82.16 108.662 82.16ZM115.265 82.16C113.974 82.16 112.966 81.792 112.241 81.056C111.515 80.32 111.153 79.3013 111.153 78C111.153 76.6987 111.515 75.68 112.241 74.944C112.966 74.208 113.974 73.84 115.265 73.84C116.555 73.84 117.563 74.208 118.289 74.944C119.025 75.68 119.393 76.6987 119.393 78C119.393 79.3013 119.025 80.32 118.289 81.056C117.563 81.792 116.555 82.16 115.265 82.16ZM115.265 80.64C115.915 80.64 116.427 80.4053 116.801 79.936C117.174 79.4667 117.361 78.8213 117.361 78C117.361 77.1787 117.174 76.5333 116.801 76.064C116.427 75.5947 115.915 75.36 115.265 75.36C114.614 75.36 114.102 75.5947 113.729 76.064C113.366 76.5333 113.185 77.1787 113.185 78C113.185 78.8213 113.366 79.4667 113.729 79.936C114.102 80.4053 114.614 80.64 115.265 80.64ZM123.282 82.16C122.589 82.16 121.976 82.0213 121.442 81.744C120.92 81.4667 120.552 81.0987 120.338 80.64L121.602 79.76C121.794 80.0267 122.04 80.24 122.338 80.4C122.637 80.56 122.941 80.64 123.25 80.64C123.613 80.64 123.912 80.5493 124.146 80.368C124.381 80.176 124.498 79.9413 124.498 79.664C124.498 79.44 124.413 79.264 124.242 79.136C124.072 78.9973 123.709 78.8213 123.154 78.608C122.184 78.2347 121.501 77.856 121.106 77.472C120.712 77.088 120.514 76.6133 120.514 76.048C120.514 75.3867 120.781 74.8533 121.314 74.448C121.858 74.0427 122.578 73.84 123.474 73.84C124.072 73.84 124.61 73.9573 125.09 74.192C125.57 74.416 125.96 74.7413 126.258 75.168L125.074 76.048C124.701 75.5893 124.194 75.36 123.554 75.36C123.234 75.36 122.984 75.4187 122.802 75.536C122.632 75.6427 122.546 75.8027 122.546 76.016C122.546 76.1653 122.584 76.288 122.658 76.384C122.733 76.48 122.877 76.5813 123.09 76.688C123.304 76.7947 123.645 76.9387 124.114 77.12C124.744 77.3653 125.229 77.6053 125.57 77.84C125.922 78.064 126.168 78.3147 126.306 78.592C126.456 78.8587 126.53 79.184 126.53 79.568C126.53 80.08 126.392 80.5333 126.114 80.928C125.848 81.312 125.469 81.616 124.978 81.84C124.488 82.0533 123.922 82.16 123.282 82.16Z" fill="#4E4B59"/>
<rect x="0.5" y="0.5" width="179" height="119" rx="3.5" stroke="#E7E7E7"/>
</svg>
