<svg width="20" height="19" viewBox="0 0 20 19" fill="none" xmlns="http://www.w3.org/2000/svg">
<path opacity="0.3" d="M9.16438 1.54077C9.58393 1.54077 9.92404 1.88088 9.92404 2.30043C9.92404 2.71998 9.58393 3.06009 9.16438 3.06009H5.44206C4.60297 3.06009 3.92275 3.7403 3.92275 4.5794V13.6953C3.92275 14.5344 4.60297 15.2146 5.44206 15.2146H14.5579C15.397 15.2146 16.0773 14.5344 16.0773 13.6953V12.176C16.0773 11.7564 16.4174 11.4163 16.8369 11.4163C17.2565 11.4163 17.5966 11.7564 17.5966 12.176V13.6953C17.5966 15.3735 16.2361 16.7339 14.5579 16.7339H5.44206C3.76387 16.7339 2.40343 15.3735 2.40343 13.6953V4.5794C2.40343 2.90121 3.76387 1.54077 5.44206 1.54077H9.16438Z" fill="#4E4B59"/>
<path d="M6.20518 10.5787C6.20518 9.99927 6.08102 7.7127 7.88475 5.89861C9.09874 4.67773 10.9156 4.46597 13.0883 4.36941V1.82456C13.0883 1.17382 13.8603 0.831847 14.3423 1.26909L18.8392 5.34884C19.165 5.64442 19.1677 6.15567 18.8449 6.45458L14.348 10.6192C13.8678 11.0639 13.0883 10.7234 13.0883 10.069V7.54784C11.7088 7.58578 10.7261 7.67353 9.83334 7.95756C8.10773 8.50654 7.08378 10.8606 6.80765 11.5777C6.76003 11.7013 6.64209 11.7858 6.50958 11.7858C6.33956 11.7858 6.20178 11.648 6.20231 11.478C6.2033 11.165 6.20518 10.8052 6.20518 10.5787Z" fill="#4E4B59"/>
</svg>
